<?xml version="1.0" encoding="UTF-8"?>
<!DOCTYPE svg PUBLIC "-//W3C//DTD SVG 1.1//EN" "http://www.w3.org/Graphics/SVG/1.1/DTD/svg11.dtd">
<svg xmlns="http://www.w3.org/2000/svg" version="1.1" width="279px" height="124px" style="shape-rendering:geometricPrecision; text-rendering:geometricPrecision; image-rendering:optimizeQuality; fill-rule:evenodd; clip-rule:evenodd" xmlns:xlink="http://www.w3.org/1999/xlink">
<g><path style="opacity:1" fill="#fdd6c8" d="M -0.5,-0.5 C 92.5,-0.5 185.5,-0.5 278.5,-0.5C 278.5,40.8333 278.5,82.1667 278.5,123.5C 185.5,123.5 92.5,123.5 -0.5,123.5C -0.5,82.1667 -0.5,40.8333 -0.5,-0.5 Z"/></g>
<g><path style="opacity:1" fill="#604750" d="M 67.5,47.5 C 67.44,46.9569 67.1067,46.6236 66.5,46.5C 65.5258,48.7427 65.1924,51.076 65.5,53.5C 63.3926,54.4682 61.0593,54.8016 58.5,54.5C 57.6192,39.5839 59.1192,24.9172 63,10.5C 64.6995,9.59391 66.5328,9.26057 68.5,9.5C 68.0941,18.174 67.9274,26.8406 68,35.5C 71.2026,31.8249 75.0359,29.6582 79.5,29C 81.0074,29.8373 81.5074,31.0039 81,32.5C 77.1542,35.0124 73.9876,38.1791 71.5,42C 74.2839,45.787 77.4506,49.287 81,52.5C 81.4828,53.448 81.6495,54.448 81.5,55.5C 79.09,56.0629 76.7567,56.5629 74.5,57C 72.0354,53.8927 69.7021,50.726 67.5,47.5 Z"/></g>
<g><path style="opacity:1" fill="#604750" d="M 205.5,9.5 C 208.5,9.5 211.5,9.5 214.5,9.5C 213.715,18.2045 212.715,26.8712 211.5,35.5C 215.37,35.7512 219.37,35.7512 223.5,35.5C 224.001,42.8371 224.168,50.1704 224,57.5C 222.247,58.627 220.413,59.627 218.5,60.5C 217.909,54.7545 217.076,49.0879 216,43.5C 210.533,45.135 208.033,48.8017 208.5,54.5C 203.036,54.5969 200.703,51.9302 201.5,46.5C 202.835,34.1599 204.168,21.8266 205.5,9.5 Z"/></g>
<g><path style="opacity:1" fill="#5f464f" d="M 9.5,17.5 C 16.175,17.3337 22.8417,17.5004 29.5,18C 34.7406,20.8769 35.9072,25.0436 33,30.5C 29.355,32.3371 29.0216,34.3371 32,36.5C 35.0992,43.5415 33.2659,48.7082 26.5,52C 21.4473,52.2174 16.4473,52.7174 11.5,53.5C 10.4574,41.519 9.7907,29.519 9.5,17.5 Z"/></g>
<g><path style="opacity:1" fill="#604650" d="M 192.5,16.5 C 195.833,15.8333 197.833,17.1667 198.5,20.5C 195.837,22.9923 193.004,25.3256 190,27.5C 188.85,29.7538 188.516,32.0871 189,34.5C 191.039,36.8745 193.372,38.8745 196,40.5C 196.61,44.2364 196.277,47.9031 195,51.5C 191.99,53.1831 188.99,54.8498 186,56.5C 182.176,55.3909 178.343,54.3909 174.5,53.5C 174.5,51.5 174.5,49.5 174.5,47.5C 177.833,47.5 181.167,47.5 184.5,47.5C 184.66,45.8008 184.494,44.1341 184,42.5C 181.417,38.9131 179.25,35.0798 177.5,31C 178.9,26.8702 180.566,22.8702 182.5,19C 186.038,18.4652 189.372,17.6319 192.5,16.5 Z"/></g>
<g><path style="opacity:1" fill="#614750" d="M 113.5,20.5 C 114.5,20.5 115.5,20.5 116.5,20.5C 116.337,22.8568 116.503,25.1902 117,27.5C 119.364,25.6372 121.864,23.9705 124.5,22.5C 127.167,24.5 129.5,26.8333 131.5,29.5C 130.764,31.5405 129.931,33.5405 129,35.5C 127.255,34.0443 125.422,32.711 123.5,31.5C 121.142,33.0243 119.309,35.0243 118,37.5C 116.838,43.1155 116.004,48.7822 115.5,54.5C 112.833,54.8333 110.167,55.1667 107.5,55.5C 106.637,44.8436 106.47,34.177 107,23.5C 109.166,22.2685 111.333,21.2685 113.5,20.5 Z"/></g>
<g><path style="opacity:1" fill="#ebc5b9" d="M 16.5,25.5 C 29.7613,26.59 29.7613,28.2567 16.5,30.5C 16.5,28.8333 16.5,27.1667 16.5,25.5 Z"/></g>
<g><path style="opacity:1" fill="#5f454f" d="M 249.5,25.5 C 251.5,25.5 253.5,25.5 255.5,25.5C 255.5,26.5 255.5,27.5 255.5,28.5C 260.357,28.8366 264.857,30.1699 269,32.5C 269.827,36.5411 269.66,40.5411 268.5,44.5C 264.805,47.3615 260.971,50.0282 257,52.5C 256.831,60.1883 256.331,67.8549 255.5,75.5C 253.677,74.2528 251.677,73.5861 249.5,73.5C 249.5,57.5 249.5,41.5 249.5,25.5 Z"/></g>
<g><path style="opacity:1" fill="#5f464f" d="M 141.5,26.5 C 141.172,31.8746 141.505,37.2079 142.5,42.5C 143.833,41.8333 145.167,41.1667 146.5,40.5C 147.738,37.6165 149.072,34.7832 150.5,32C 152.818,31.6577 154.985,32.1577 157,33.5C 157.323,48.5256 156.823,63.5256 155.5,78.5C 154.167,78.5 152.833,78.5 151.5,78.5C 150.167,78.5 148.833,78.5 147.5,78.5C 147.827,69.3178 147.493,60.3178 146.5,51.5C 143.933,51.8545 141.433,52.5212 139,53.5C 136.127,52.1087 134.461,49.7754 134,46.5C 133.501,42.1794 133.334,37.8461 133.5,33.5C 134.468,31.3926 134.802,29.0593 134.5,26.5C 136.833,26.5 139.167,26.5 141.5,26.5 Z"/></g>
<g><path style="opacity:1" fill="#624851" d="M 45.5,27.5 C 50.1997,27.7653 53.3664,30.0987 55,34.5C 55.651,40.8268 56.151,47.1601 56.5,53.5C 54.8333,53.5 53.1667,53.5 51.5,53.5C 51.6563,46.3419 50.323,45.5086 47.5,51C 44.8333,51.6667 42.1667,51.6667 39.5,51C 37.5475,47.6461 35.8809,44.1461 34.5,40.5C 37.8731,35.8038 41.5398,31.4704 45.5,27.5 Z"/></g>
<g><path style="opacity:1" fill="#614851" d="M 94.5,26.5 C 103.459,26.7837 106.459,31.1171 103.5,39.5C 99.6733,41.246 96.0066,43.246 92.5,45.5C 95.4788,45.7533 98.4788,45.0867 101.5,43.5C 102.845,44.3467 103.845,45.5134 104.5,47C 101.056,49.8066 97.2229,51.9732 93,53.5C 86.698,51.5883 83.8647,47.255 84.5,40.5C 84.9297,33.603 88.263,28.9364 94.5,26.5 Z"/></g>
<g><path style="opacity:1" fill="#614851" d="M 234.5,27.5 C 237.85,27.335 241.183,27.5017 244.5,28C 245,28.5 245.5,29 246,29.5C 246.667,36.1667 246.667,42.8333 246,49.5C 244.833,50.6667 243.667,51.8333 242.5,53C 238.167,53.6667 233.833,53.6667 229.5,53C 228.953,52.0754 228.287,51.2421 227.5,50.5C 226.336,44.5276 226.17,38.5276 227,32.5C 227.956,31.4214 228.789,30.2547 229.5,29C 231.382,28.8019 233.048,28.3019 234.5,27.5 Z"/></g>
<g><path style="opacity:1" fill="#aa8a88" d="M 141.5,26.5 C 139.167,26.5 136.833,26.5 134.5,26.5C 134.802,29.0593 134.468,31.3926 133.5,33.5C 133.5,30.8333 133.5,28.1667 133.5,25.5C 136.385,25.1936 139.052,25.5269 141.5,26.5 Z"/></g>
<g><path style="opacity:1" fill="#f8d2c4" d="M 234.5,33.5 C 236.5,33.5 238.5,33.5 240.5,33.5C 240.5,37.1667 240.5,40.8333 240.5,44.5C 238.5,44.5 236.5,44.5 234.5,44.5C 234.5,40.8333 234.5,37.1667 234.5,33.5 Z"/></g>
<g><path style="opacity:1" fill="#f7d1c3" d="M 45.5,34.5 C 46.8799,34.9623 47.5466,35.9623 47.5,37.5C 46.8631,40.1071 45.6965,42.4404 44,44.5C 42.5362,43.541 41.7028,42.2077 41.5,40.5C 42.4316,38.2345 43.7649,36.2345 45.5,34.5 Z"/></g>
<g><path style="opacity:1" fill="#e9c3b8" d="M 94.5,35.5 C 96.5273,35.3379 98.5273,35.5045 100.5,36C 97.5815,37.7088 94.7482,39.5421 92,41.5C 91.4585,38.9175 92.2918,36.9175 94.5,35.5 Z"/></g>
<g><path style="opacity:1" fill="#efc9bc" d="M 257.5,35.5 C 258.833,35.5 260.167,35.5 261.5,35.5C 262.056,39.1928 260.722,41.8595 257.5,43.5C 256.271,40.8013 256.271,38.1346 257.5,35.5 Z"/></g>
<g><path style="opacity:1" fill="#f0cabe" d="M 16.5,39.5 C 18.8568,39.3367 21.1902,39.5034 23.5,40C 24.6877,45.3255 22.3543,47.8255 16.5,47.5C 16.5,44.8333 16.5,42.1667 16.5,39.5 Z"/></g>
<g><path style="opacity:1" fill="#bc9a96" d="M 67.5,47.5 C 66.8333,49.5 66.1667,51.5 65.5,53.5C 65.1924,51.076 65.5258,48.7427 66.5,46.5C 67.1067,46.6236 67.44,46.9569 67.5,47.5 Z"/></g>
<g><path style="opacity:1" fill="#a98a88" d="M 146.5,51.5 C 147.493,60.3178 147.827,69.3178 147.5,78.5C 148.833,78.5 150.167,78.5 151.5,78.5C 150.081,79.4511 148.415,79.7845 146.5,79.5C 146.5,70.1667 146.5,60.8333 146.5,51.5 Z"/></g>
<g><path style="opacity:1" fill="#694f57" d="M 78.5,102.5 C 79.4959,102.414 80.3292,102.748 81,103.5C 81.6667,105.5 82.3333,107.5 83,109.5C 84.9118,100.741 87.5784,100.407 91,108.5C 91.813,106.564 92.313,104.564 92.5,102.5C 93.675,102.281 94.675,102.614 95.5,103.5C 94.0906,106.727 93.0906,110.06 92.5,113.5C 91.1779,113.67 90.0113,113.337 89,112.5C 87.1291,104.792 85.6291,105.125 84.5,113.5C 83.325,113.719 82.325,113.386 81.5,112.5C 80.0906,109.273 79.0906,105.94 78.5,102.5 Z"/></g>
<g><path style="opacity:1" fill="#6a4f57" d="M 104.5,102.5 C 107.572,102.183 110.572,102.516 113.5,103.5C 111.5,104.167 109.5,104.833 107.5,105.5C 114.049,107.093 114.049,108.093 107.5,108.5C 107.5,109.5 107.5,110.5 107.5,111.5C 109.604,111.201 111.604,111.534 113.5,112.5C 110.572,113.484 107.572,113.817 104.5,113.5C 104.5,109.833 104.5,106.167 104.5,102.5 Z"/></g>
<g><path style="opacity:1" fill="#684e56" d="M 122.5,102.5 C 125.247,102.187 127.914,102.52 130.5,103.5C 123.833,104.833 123.833,106.167 130.5,107.5C 128.955,108.452 127.288,108.785 125.5,108.5C 125.5,109.5 125.5,110.5 125.5,111.5C 127.604,111.201 129.604,111.534 131.5,112.5C 128.572,113.484 125.572,113.817 122.5,113.5C 122.5,109.833 122.5,106.167 122.5,102.5 Z"/></g>
<g><path style="opacity:1" fill="#684e56" d="M 139.5,102.5 C 142.572,102.183 145.572,102.516 148.5,103.5C 147.675,104.386 146.675,104.719 145.5,104.5C 145.5,107.5 145.5,110.5 145.5,113.5C 144.5,113.5 143.5,113.5 142.5,113.5C 142.5,110.5 142.5,107.5 142.5,104.5C 140.821,104.715 139.821,104.048 139.5,102.5 Z"/></g>
<g><path style="opacity:1" fill="#614851" d="M 169.5,102.5 C 172.187,102.336 174.854,102.503 177.5,103C 180.978,105.706 181.311,108.706 178.5,112C 175.649,113.289 172.649,113.789 169.5,113.5C 169.5,109.833 169.5,106.167 169.5,102.5 Z"/></g>
<g><path style="opacity:1" fill="#664c54" d="M 62.5,102.5 C 70.9653,102.63 71.2986,103.63 63.5,105.5C 65.1792,106.782 67.0126,107.782 69,108.5C 69.7203,110.112 69.5536,111.612 68.5,113C 65.6213,113.874 62.9546,113.54 60.5,112C 61,111.5 61.5,111 62,110.5C 63.8138,111.76 65.6471,111.76 67.5,110.5C 65.6136,109.594 63.7803,108.594 62,107.5C 61.3603,105.735 61.5269,104.068 62.5,102.5 Z"/></g>
<g><path style="opacity:1" fill="#f0cabe" d="M 171.5,104.5 C 177.158,103.679 178.825,105.846 176.5,111C 174.866,111.494 173.199,111.66 171.5,111.5C 171.5,109.167 171.5,106.833 171.5,104.5 Z"/></g>
<g><path style="opacity:1" fill="#6b5158" d="M 192.5,102.5 C 193.978,102.238 195.311,102.571 196.5,103.5C 198.396,106.827 199.396,110.16 199.5,113.5C 196.372,110.9 193.205,110.9 190,113.5C 189.5,113.167 189,112.833 188.5,112.5C 190.406,109.36 191.74,106.027 192.5,102.5 Z"/></g>
<g><path style="opacity:1" fill="#644b53" d="M 208.5,102.5 C 210.729,103.055 212.395,104.389 213.5,106.5C 214.382,105.24 215.382,104.074 216.5,103C 217.332,102.312 217.998,102.479 218.5,103.5C 215.944,106.389 214.277,109.723 213.5,113.5C 212.082,109.667 210.415,106 208.5,102.5 Z"/></g>
<g><path style="opacity:1" fill="#c19f9a" d="M 193.5,105.5 C 195.121,105.787 196.121,106.787 196.5,108.5C 195.675,109.386 194.675,109.719 193.5,109.5C 193.5,108.167 193.5,106.833 193.5,105.5 Z"/></g>
</svg>
