<?xml version="1.0" encoding="UTF-8"?>
<!DOCTYPE svg PUBLIC "-//W3C//DTD SVG 1.1//EN" "http://www.w3.org/Graphics/SVG/1.1/DTD/svg11.dtd">
<svg xmlns="http://www.w3.org/2000/svg" version="1.1" width="291px" height="89px" style="shape-rendering:geometricPrecision; text-rendering:geometricPrecision; image-rendering:optimizeQuality; fill-rule:evenodd; clip-rule:evenodd" xmlns:xlink="http://www.w3.org/1999/xlink">
<g><path style="opacity:1" fill="#fdd6c8" d="M -0.5,-0.5 C 96.5,-0.5 193.5,-0.5 290.5,-0.5C 290.5,29.1667 290.5,58.8333 290.5,88.5C 193.5,88.5 96.5,88.5 -0.5,88.5C -0.5,58.8333 -0.5,29.1667 -0.5,-0.5 Z"/></g>
<g><path style="opacity:1" fill="#604750" d="M 73.5,47.5 C 73.44,46.9569 73.1067,46.6236 72.5,46.5C 71.5258,48.7427 71.1924,51.076 71.5,53.5C 69.3926,54.4682 67.0593,54.8016 64.5,54.5C 63.6192,39.5839 65.1192,24.9172 69,10.5C 70.6995,9.59391 72.5328,9.26057 74.5,9.5C 74.0941,18.174 73.9274,26.8406 74,35.5C 77.2026,31.8249 81.0359,29.6582 85.5,29C 87.0074,29.8373 87.5074,31.0039 87,32.5C 83.1542,35.0124 79.9876,38.1791 77.5,42C 80.2839,45.787 83.4506,49.287 87,52.5C 87.4828,53.448 87.6495,54.448 87.5,55.5C 85.09,56.0629 82.7567,56.5629 80.5,57C 78.0354,53.8927 75.7021,50.726 73.5,47.5 Z"/></g>
<g><path style="opacity:1" fill="#604750" d="M 211.5,9.5 C 214.5,9.5 217.5,9.5 220.5,9.5C 219.715,18.2045 218.715,26.8712 217.5,35.5C 221.37,35.7512 225.37,35.7512 229.5,35.5C 230.001,42.8371 230.168,50.1704 230,57.5C 228.247,58.627 226.413,59.627 224.5,60.5C 223.909,54.7545 223.076,49.0879 222,43.5C 216.533,45.135 214.033,48.8017 214.5,54.5C 209.036,54.5969 206.703,51.9302 207.5,46.5C 208.835,34.1599 210.168,21.8266 211.5,9.5 Z"/></g>
<g><path style="opacity:1" fill="#5f464f" d="M 15.5,17.5 C 22.175,17.3337 28.8417,17.5004 35.5,18C 40.7406,20.8769 41.9072,25.0436 39,30.5C 35.355,32.3371 35.0216,34.3371 38,36.5C 41.0992,43.5415 39.2659,48.7082 32.5,52C 27.4473,52.2174 22.4473,52.7174 17.5,53.5C 16.4574,41.519 15.7907,29.519 15.5,17.5 Z"/></g>
<g><path style="opacity:1" fill="#604650" d="M 198.5,16.5 C 201.833,15.8333 203.833,17.1667 204.5,20.5C 201.837,22.9923 199.004,25.3256 196,27.5C 194.85,29.7538 194.516,32.0871 195,34.5C 197.039,36.8745 199.372,38.8745 202,40.5C 202.61,44.2364 202.277,47.9031 201,51.5C 197.99,53.1831 194.99,54.8498 192,56.5C 188.176,55.3909 184.343,54.3909 180.5,53.5C 180.5,51.5 180.5,49.5 180.5,47.5C 183.833,47.5 187.167,47.5 190.5,47.5C 190.66,45.8008 190.494,44.1341 190,42.5C 187.417,38.9131 185.25,35.0798 183.5,31C 184.9,26.8702 186.566,22.8702 188.5,19C 192.038,18.4652 195.372,17.6319 198.5,16.5 Z"/></g>
<g><path style="opacity:1" fill="#614750" d="M 119.5,20.5 C 120.5,20.5 121.5,20.5 122.5,20.5C 122.337,22.8568 122.503,25.1902 123,27.5C 125.364,25.6372 127.864,23.9705 130.5,22.5C 133.167,24.5 135.5,26.8333 137.5,29.5C 136.764,31.5405 135.931,33.5405 135,35.5C 133.255,34.0443 131.422,32.711 129.5,31.5C 127.142,33.0243 125.309,35.0243 124,37.5C 122.838,43.1155 122.004,48.7822 121.5,54.5C 118.833,54.8333 116.167,55.1667 113.5,55.5C 112.637,44.8436 112.47,34.177 113,23.5C 115.166,22.2685 117.333,21.2685 119.5,20.5 Z"/></g>
<g><path style="opacity:1" fill="#ebc5b9" d="M 22.5,25.5 C 35.7613,26.59 35.7613,28.2567 22.5,30.5C 22.5,28.8333 22.5,27.1667 22.5,25.5 Z"/></g>
<g><path style="opacity:1" fill="#5f454f" d="M 255.5,25.5 C 257.5,25.5 259.5,25.5 261.5,25.5C 261.5,26.5 261.5,27.5 261.5,28.5C 266.357,28.8366 270.857,30.1699 275,32.5C 275.827,36.5411 275.66,40.5411 274.5,44.5C 270.805,47.3615 266.971,50.0282 263,52.5C 262.831,60.1883 262.331,67.8549 261.5,75.5C 259.677,74.2528 257.677,73.5861 255.5,73.5C 255.5,57.5 255.5,41.5 255.5,25.5 Z"/></g>
<g><path style="opacity:1" fill="#5f464f" d="M 147.5,26.5 C 147.172,31.8746 147.505,37.2079 148.5,42.5C 149.833,41.8333 151.167,41.1667 152.5,40.5C 153.738,37.6165 155.072,34.7832 156.5,32C 158.818,31.6577 160.985,32.1577 163,33.5C 163.323,48.5256 162.823,63.5256 161.5,78.5C 160.167,78.5 158.833,78.5 157.5,78.5C 156.167,78.5 154.833,78.5 153.5,78.5C 153.827,69.3178 153.493,60.3178 152.5,51.5C 149.933,51.8545 147.433,52.5212 145,53.5C 142.127,52.1087 140.461,49.7754 140,46.5C 139.501,42.1794 139.334,37.8461 139.5,33.5C 140.468,31.3926 140.802,29.0593 140.5,26.5C 142.833,26.5 145.167,26.5 147.5,26.5 Z"/></g>
<g><path style="opacity:1" fill="#624851" d="M 51.5,27.5 C 56.1997,27.7653 59.3664,30.0987 61,34.5C 61.651,40.8268 62.151,47.1601 62.5,53.5C 60.8333,53.5 59.1667,53.5 57.5,53.5C 57.6563,46.3419 56.323,45.5086 53.5,51C 50.8333,51.6667 48.1667,51.6667 45.5,51C 43.5475,47.6461 41.8809,44.1461 40.5,40.5C 43.8731,35.8038 47.5398,31.4704 51.5,27.5 Z"/></g>
<g><path style="opacity:1" fill="#614851" d="M 100.5,26.5 C 109.459,26.7837 112.459,31.1171 109.5,39.5C 105.673,41.246 102.007,43.246 98.5,45.5C 101.479,45.7533 104.479,45.0867 107.5,43.5C 108.845,44.3467 109.845,45.5134 110.5,47C 107.056,49.8066 103.223,51.9732 99,53.5C 92.698,51.5883 89.8647,47.255 90.5,40.5C 90.9297,33.603 94.263,28.9364 100.5,26.5 Z"/></g>
<g><path style="opacity:1" fill="#614851" d="M 240.5,27.5 C 243.85,27.335 247.183,27.5017 250.5,28C 251,28.5 251.5,29 252,29.5C 252.667,36.1667 252.667,42.8333 252,49.5C 250.833,50.6667 249.667,51.8333 248.5,53C 244.167,53.6667 239.833,53.6667 235.5,53C 234.953,52.0754 234.287,51.2421 233.5,50.5C 232.336,44.5276 232.17,38.5276 233,32.5C 233.956,31.4214 234.789,30.2547 235.5,29C 237.382,28.8019 239.048,28.3019 240.5,27.5 Z"/></g>
<g><path style="opacity:1" fill="#aa8a88" d="M 147.5,26.5 C 145.167,26.5 142.833,26.5 140.5,26.5C 140.802,29.0593 140.468,31.3926 139.5,33.5C 139.5,30.8333 139.5,28.1667 139.5,25.5C 142.385,25.1936 145.052,25.5269 147.5,26.5 Z"/></g>
<g><path style="opacity:1" fill="#f8d2c4" d="M 240.5,33.5 C 242.5,33.5 244.5,33.5 246.5,33.5C 246.5,37.1667 246.5,40.8333 246.5,44.5C 244.5,44.5 242.5,44.5 240.5,44.5C 240.5,40.8333 240.5,37.1667 240.5,33.5 Z"/></g>
<g><path style="opacity:1" fill="#f7d1c3" d="M 51.5,34.5 C 52.8799,34.9623 53.5466,35.9623 53.5,37.5C 52.8631,40.1071 51.6965,42.4404 50,44.5C 48.5362,43.541 47.7028,42.2077 47.5,40.5C 48.4316,38.2345 49.7649,36.2345 51.5,34.5 Z"/></g>
<g><path style="opacity:1" fill="#e9c3b8" d="M 100.5,35.5 C 102.527,35.3379 104.527,35.5045 106.5,36C 103.582,37.7088 100.748,39.5421 98,41.5C 97.4585,38.9175 98.2918,36.9175 100.5,35.5 Z"/></g>
<g><path style="opacity:1" fill="#efc9bc" d="M 263.5,35.5 C 264.833,35.5 266.167,35.5 267.5,35.5C 268.056,39.1928 266.722,41.8595 263.5,43.5C 262.271,40.8013 262.271,38.1346 263.5,35.5 Z"/></g>
<g><path style="opacity:1" fill="#f0cabe" d="M 22.5,39.5 C 24.8568,39.3367 27.1902,39.5034 29.5,40C 30.6877,45.3255 28.3543,47.8255 22.5,47.5C 22.5,44.8333 22.5,42.1667 22.5,39.5 Z"/></g>
<g><path style="opacity:1" fill="#bc9a96" d="M 73.5,47.5 C 72.8333,49.5 72.1667,51.5 71.5,53.5C 71.1924,51.076 71.5258,48.7427 72.5,46.5C 73.1067,46.6236 73.44,46.9569 73.5,47.5 Z"/></g>
<g><path style="opacity:1" fill="#b79692" d="M 152.5,51.5 C 153.493,60.3178 153.827,69.3178 153.5,78.5C 154.833,78.5 156.167,78.5 157.5,78.5C 156.081,79.4511 154.415,79.7845 152.5,79.5C 152.5,70.1667 152.5,60.8333 152.5,51.5 Z"/></g>
</svg>
